<svg width="21" height="22" viewBox="0 0 21 22" fill="none" xmlns="http://www.w3.org/2000/svg">
<path d="M16.6346 0C17.8413 0.00801341 18.8721 0.437496 19.7271 1.28845C20.582 2.1394 21.0095 3.16824 21.0095 4.37495C21.0095 4.58809 20.9959 4.87936 20.9686 5.24875C20.9414 5.61814 20.8965 6.04883 20.834 6.54081L19.1033 19.1346C19.0231 19.774 18.7359 20.2916 18.2415 20.6874C17.7471 21.0832 17.1802 21.2812 16.5408 21.2812C16.1338 21.2812 15.7652 21.183 15.435 20.9867C15.1049 20.7904 14.8245 20.5328 14.5937 20.2139L11.0697 15.2547C11.004 15.1554 10.9202 15.08 10.8185 15.0288C10.7167 14.9775 10.6017 14.9518 10.4735 14.9518C10.3581 14.9518 10.1594 15.0736 9.87734 15.3172L6.44704 20.1201C6.19544 20.4647 5.89416 20.7443 5.54321 20.959C5.19225 21.1738 4.81325 21.2812 4.4062 21.2812C3.76679 21.2812 3.2051 21.078 2.72114 20.6718C2.23717 20.2656 1.95513 19.7427 1.875 19.1033L0.17548 6.54081C0.11298 6.04883 0.0681082 5.61814 0.0408649 5.24875C0.0136216 4.87936 0 4.58809 0 4.37495C0 3.16824 0.427479 2.1374 1.28244 1.28244C2.1374 0.427479 3.16824 0 4.37495 0C5.05283 0 5.61172 0.0989583 6.05163 0.296875C6.49153 0.494792 6.91982 0.708333 7.33648 0.9375C7.75315 1.16667 8.20187 1.38021 8.68264 1.57812C9.16341 1.77604 9.77078 1.875 10.5048 1.875C11.2467 1.875 11.8601 1.77604 12.3449 1.57812C12.8297 1.38021 13.2804 1.16667 13.6971 0.9375C14.1137 0.708333 14.5432 0.494792 14.9855 0.296875C15.4278 0.0989583 15.9775 0 16.6346 0V0M16.6346 1.87495C16.1554 1.87495 15.7335 1.97391 15.3689 2.17183C15.0043 2.36975 14.6073 2.58329 14.1778 2.81245C13.7483 3.04162 13.2499 3.25516 12.6826 3.45308C12.1153 3.651 11.3894 3.74995 10.5048 3.74995C9.63617 3.74995 8.91822 3.651 8.35091 3.45308C7.78361 3.25516 7.28521 3.04162 6.85572 2.81245C6.42624 2.58329 6.0252 2.36975 5.6526 2.17183C5.28 1.97391 4.85412 1.87495 4.37495 1.87495C3.68745 1.87495 3.09891 2.11975 2.60933 2.60933C2.11975 3.09891 1.87495 3.68745 1.87495 4.37495C1.87495 4.54162 1.88537 4.7812 1.9062 5.0937C1.92704 5.4062 1.9687 5.77079 2.0312 6.18745L3.74995 18.8437C3.77079 19.0104 3.8437 19.1406 3.9687 19.2343C4.0937 19.3281 4.23954 19.375 4.4062 19.375C4.53441 19.375 4.64619 19.3361 4.74154 19.2584C4.8369 19.1806 4.91743 19.0881 4.98314 18.9807L8.33171 14.2596C8.58331 13.907 8.89821 13.6217 9.27641 13.4038C9.6546 13.1858 10.0641 13.0769 10.5048 13.0769C10.9374 13.0769 11.3449 13.1858 11.7271 13.4038C12.1093 13.6217 12.4262 13.907 12.6778 14.2596L16.0769 19.0745C16.1426 19.161 16.2127 19.2379 16.2872 19.3052C16.3617 19.3725 16.4567 19.4062 16.5721 19.4062C16.7387 19.4062 16.8898 19.3593 17.0252 19.2656C17.1606 19.1718 17.2387 19.0416 17.2596 18.875L18.9783 6.18745C19.0408 5.77079 19.0825 5.4062 19.1033 5.0937C19.1241 4.7812 19.1346 4.54162 19.1346 4.37495C19.1346 3.68745 18.8898 3.09891 18.4002 2.60933C17.9106 2.11975 17.3221 1.87495 16.6346 1.87495V1.87495M10.5048 10.625V10.625V10.625V10.625V10.625V10.625V10.625V10.625V10.625V10.625V10.625V10.625V10.625V10.625V10.625V10.625V10.625V10.625V10.625V10.625V10.625V10.625V10.625V10.625V10.625V10.625V10.625V10.625V10.625V10.625V10.625V10.625V10.625V10.625" fill="#000A1E"/>
</svg>
