<svg width="17" height="17" viewBox="0 0 17 17" fill="none" xmlns="http://www.w3.org/2000/svg">
<path d="M8.25 10.5C8.875 10.5 9.40625 10.2812 9.84375 9.84375C10.2812 9.40625 10.5 8.875 10.5 8.25C10.5 7.625 10.2812 7.09375 9.84375 6.65625C9.40625 6.21875 8.875 6 8.25 6C7.625 6 7.09375 6.21875 6.65625 6.65625C6.21875 7.09375 6 7.625 6 8.25C6 8.875 6.21875 9.40625 6.65625 9.84375C7.09375 10.2812 7.625 10.5 8.25 10.5ZM8.25 12C7.2125 12 6.32812 11.6344 5.59688 10.9031C4.86563 10.1719 4.5 9.2875 4.5 8.25C4.5 7.2125 4.86563 6.32812 5.59688 5.59688C6.32812 4.86563 7.2125 4.5 8.25 4.5C9.2875 4.5 10.1719 4.86563 10.9031 5.59688C11.6344 6.32812 12 7.2125 12 8.25C12 9.2875 11.6344 10.1719 10.9031 10.9031C10.1719 11.6344 9.2875 12 8.25 12ZM3 9H0V7.5H3V9ZM16.5 9H13.5V7.5H16.5V9ZM7.5 3V0H9V3H7.5ZM7.5 16.5V13.5H9V16.5H7.5ZM4.05 5.0625L2.15625 3.24375L3.225 2.1375L5.025 4.0125L4.05 5.0625ZM13.275 14.3625L11.4563 12.4688L12.45 11.4375L14.3438 13.2563L13.275 14.3625ZM11.4375 4.05L13.2563 2.15625L14.3625 3.225L12.4875 5.025L11.4375 4.05ZM2.1375 13.275L4.03125 11.4563L5.0625 12.45L3.24375 14.3438L2.1375 13.275Z" fill="#1A1C1A"/>
</svg>
