<svg width="19" height="21" viewBox="0 0 19 21" fill="none" xmlns="http://www.w3.org/2000/svg">
<path d="M2.5 20.5C1.95 20.5 1.47917 20.3042 1.0875 19.9125C0.695833 19.5208 0.5 19.05 0.5 18.5V4.5C0.5 3.95 0.695833 3.47917 1.0875 3.0875C1.47917 2.69583 1.95 2.5 2.5 2.5H3.5V0.5H5.5V2.5H13.5V0.5H15.5V2.5H16.5C17.05 2.5 17.5208 2.69583 17.9125 3.0875C18.3042 3.47917 18.5 3.95 18.5 4.5V18.5C18.5 19.05 18.3042 19.5208 17.9125 19.9125C17.5208 20.3042 17.05 20.5 16.5 20.5H2.5V20.5M2.5 18.5H16.5V18.5V18.5V8.5H2.5V18.5V18.5V18.5V18.5M2.5 6.5H16.5V4.5V4.5V4.5H2.5V4.5V4.5V6.5V6.5M2.5 6.5V4.5V4.5V4.5V4.5V4.5V4.5V6.5V6.5V6.5M9.5 12.5C9.21667 12.5 8.97917 12.4042 8.7875 12.2125C8.59583 12.0208 8.5 11.7833 8.5 11.5C8.5 11.2167 8.59583 10.9792 8.7875 10.7875C8.97917 10.5958 9.21667 10.5 9.5 10.5C9.78333 10.5 10.0208 10.5958 10.2125 10.7875C10.4042 10.9792 10.5 11.2167 10.5 11.5C10.5 11.7833 10.4042 12.0208 10.2125 12.2125C10.0208 12.4042 9.78333 12.5 9.5 12.5V12.5M5.5 12.5C5.21667 12.5 4.97917 12.4042 4.7875 12.2125C4.59583 12.0208 4.5 11.7833 4.5 11.5C4.5 11.2167 4.59583 10.9792 4.7875 10.7875C4.97917 10.5958 5.21667 10.5 5.5 10.5C5.78333 10.5 6.02083 10.5958 6.2125 10.7875C6.40417 10.9792 6.5 11.2167 6.5 11.5C6.5 11.7833 6.40417 12.0208 6.2125 12.2125C6.02083 12.4042 5.78333 12.5 5.5 12.5V12.5M13.5 12.5C13.2167 12.5 12.9792 12.4042 12.7875 12.2125C12.5958 12.0208 12.5 11.7833 12.5 11.5C12.5 11.2167 12.5958 10.9792 12.7875 10.7875C12.9792 10.5958 13.2167 10.5 13.5 10.5C13.7833 10.5 14.0208 10.5958 14.2125 10.7875C14.4042 10.9792 14.5 11.2167 14.5 11.5C14.5 11.7833 14.4042 12.0208 14.2125 12.2125C14.0208 12.4042 13.7833 12.5 13.5 12.5V12.5M9.5 16.5C9.21667 16.5 8.97917 16.4042 8.7875 16.2125C8.59583 16.0208 8.5 15.7833 8.5 15.5C8.5 15.2167 8.59583 14.9792 8.7875 14.7875C8.97917 14.5958 9.21667 14.5 9.5 14.5C9.78333 14.5 10.0208 14.5958 10.2125 14.7875C10.4042 14.9792 10.5 15.2167 10.5 15.5C10.5 15.7833 10.4042 16.0208 10.2125 16.2125C10.0208 16.4042 9.78333 16.5 9.5 16.5V16.5M5.5 16.5C5.21667 16.5 4.97917 16.4042 4.7875 16.2125C4.59583 16.0208 4.5 15.7833 4.5 15.5C4.5 15.2167 4.59583 14.9792 4.7875 14.7875C4.97917 14.5958 5.21667 14.5 5.5 14.5C5.78333 14.5 6.02083 14.5958 6.2125 14.7875C6.40417 14.9792 6.5 15.2167 6.5 15.5C6.5 15.7833 6.40417 16.0208 6.2125 16.2125C6.02083 16.4042 5.78333 16.5 5.5 16.5V16.5M13.5 16.5C13.2167 16.5 12.9792 16.4042 12.7875 16.2125C12.5958 16.0208 12.5 15.7833 12.5 15.5C12.5 15.2167 12.5958 14.9792 12.7875 14.7875C12.9792 14.5958 13.2167 14.5 13.5 14.5C13.7833 14.5 14.0208 14.5958 14.2125 14.7875C14.4042 14.9792 14.5 15.2167 14.5 15.5C14.5 15.7833 14.4042 16.0208 14.2125 16.2125C14.0208 16.4042 13.7833 16.5 13.5 16.5V16.5" fill="white"/>
<path d="M2.5 20.5C1.95 20.5 1.47917 20.3042 1.0875 19.9125C0.695833 19.5208 0.5 19.05 0.5 18.5V4.5C0.5 3.95 0.695833 3.47917 1.0875 3.0875C1.47917 2.69583 1.95 2.5 2.5 2.5H3.5V0.5H5.5V2.5H13.5V0.5H15.5V2.5H16.5C17.05 2.5 17.5208 2.69583 17.9125 3.0875C18.3042 3.47917 18.5 3.95 18.5 4.5V18.5C18.5 19.05 18.3042 19.5208 17.9125 19.9125C17.5208 20.3042 17.05 20.5 16.5 20.5H2.5V20.5M2.5 18.5H16.5V18.5V18.5V8.5H2.5V18.5V18.5V18.5V18.5M2.5 6.5H16.5V4.5V4.5V4.5H2.5V4.5V4.5V6.5V6.5M2.5 6.5V4.5V4.5V4.5V4.5V4.5V4.5V6.5V6.5V6.5M9.5 12.5C9.21667 12.5 8.97917 12.4042 8.7875 12.2125C8.59583 12.0208 8.5 11.7833 8.5 11.5C8.5 11.2167 8.59583 10.9792 8.7875 10.7875C8.97917 10.5958 9.21667 10.5 9.5 10.5C9.78333 10.5 10.0208 10.5958 10.2125 10.7875C10.4042 10.9792 10.5 11.2167 10.5 11.5C10.5 11.7833 10.4042 12.0208 10.2125 12.2125C10.0208 12.4042 9.78333 12.5 9.5 12.5V12.5M5.5 12.5C5.21667 12.5 4.97917 12.4042 4.7875 12.2125C4.59583 12.0208 4.5 11.7833 4.5 11.5C4.5 11.2167 4.59583 10.9792 4.7875 10.7875C4.97917 10.5958 5.21667 10.5 5.5 10.5C5.78333 10.5 6.02083 10.5958 6.2125 10.7875C6.40417 10.9792 6.5 11.2167 6.5 11.5C6.5 11.7833 6.40417 12.0208 6.2125 12.2125C6.02083 12.4042 5.78333 12.5 5.5 12.5V12.5M13.5 12.5C13.2167 12.5 12.9792 12.4042 12.7875 12.2125C12.5958 12.0208 12.5 11.7833 12.5 11.5C12.5 11.2167 12.5958 10.9792 12.7875 10.7875C12.9792 10.5958 13.2167 10.5 13.5 10.5C13.7833 10.5 14.0208 10.5958 14.2125 10.7875C14.4042 10.9792 14.5 11.2167 14.5 11.5C14.5 11.7833 14.4042 12.0208 14.2125 12.2125C14.0208 12.4042 13.7833 12.5 13.5 12.5V12.5M9.5 16.5C9.21667 16.5 8.97917 16.4042 8.7875 16.2125C8.59583 16.0208 8.5 15.7833 8.5 15.5C8.5 15.2167 8.59583 14.9792 8.7875 14.7875C8.97917 14.5958 9.21667 14.5 9.5 14.5C9.78333 14.5 10.0208 14.5958 10.2125 14.7875C10.4042 14.9792 10.5 15.2167 10.5 15.5C10.5 15.7833 10.4042 16.0208 10.2125 16.2125C10.0208 16.4042 9.78333 16.5 9.5 16.5V16.5M5.5 16.5C5.21667 16.5 4.97917 16.4042 4.7875 16.2125C4.59583 16.0208 4.5 15.7833 4.5 15.5C4.5 15.2167 4.59583 14.9792 4.7875 14.7875C4.97917 14.5958 5.21667 14.5 5.5 14.5C5.78333 14.5 6.02083 14.5958 6.2125 14.7875C6.40417 14.9792 6.5 15.2167 6.5 15.5C6.5 15.7833 6.40417 16.0208 6.2125 16.2125C6.02083 16.4042 5.78333 16.5 5.5 16.5V16.5M13.5 16.5C13.2167 16.5 12.9792 16.4042 12.7875 16.2125C12.5958 16.0208 12.5 15.7833 12.5 15.5C12.5 15.2167 12.5958 14.9792 12.7875 14.7875C12.9792 14.5958 13.2167 14.5 13.5 14.5C13.7833 14.5 14.0208 14.5958 14.2125 14.7875C14.4042 14.9792 14.5 15.2167 14.5 15.5C14.5 15.7833 14.4042 16.0208 14.2125 16.2125C14.0208 16.4042 13.7833 16.5 13.5 16.5V16.5" stroke="black" stroke-linejoin="bevel"/>
</svg>
