<svg width="18" height="20" viewBox="0 0 18 20" fill="none" xmlns="http://www.w3.org/2000/svg">
<path d="M2 20C1.45 20 0.979167 19.8042 0.5875 19.4125C0.195833 19.0208 -2.12421e-10 18.55 -2.06123e-10 18L0 4C0 3.45 0.195833 2.97917 0.5875 2.5875C0.979167 2.19583 1.45 2 2 2L3 2L3 0L5 0L5 2L13 2L13 1.48866e-10L15 1.71769e-10L15 2L16 2C16.55 2 17.0208 2.19583 17.4125 2.5875C17.8042 2.97917 18 3.45 18 4L18 18C18 18.55 17.8042 19.0208 17.4125 19.4125C17.0208 19.8042 16.55 20 16 20L2 20ZM2 18L16 18L16 8L2 8L2 18ZM2 6L16 6L16 4L2 4L2 6ZM2 6L2 4L2 6Z" fill="#020617"/>
</svg>
