<svg width="27" height="27" viewBox="0 0 27 27" fill="none" xmlns="http://www.w3.org/2000/svg">
<path d="M12.7751 20.2528L14.2751 20.2472L14.2528 14.2472L20.2528 14.2249L20.2472 12.7249L14.2472 12.7472L14.2249 6.74726L12.7249 6.75284L12.7472 12.7528L6.74726 12.7751L6.75284 14.2751L12.7528 14.2528L12.7751 20.2528ZM13.5552 26.9999C11.6884 27.0068 9.93195 26.6591 8.2859 25.9567C6.63984 25.2544 5.20672 24.2982 3.98653 23.0881C2.76634 21.8781 1.79862 20.4535 1.08338 18.8142C0.368133 17.175 0.00704374 15.422 0.000110226 13.5552C-0.00682329 11.6884 0.340899 9.93195 1.04328 8.2859C1.74566 6.63984 2.70186 5.20672 3.91188 3.98653C5.12191 2.76634 6.54655 1.79862 8.18579 1.08338C9.82504 0.368133 11.5781 0.00704366 13.4449 0.000110145C15.3116 -0.00682337 17.0681 0.340899 18.7141 1.04328C20.3602 1.74566 21.7933 2.70186 23.0135 3.91188C24.2337 5.12191 25.2014 6.54654 25.9166 8.18579C26.6319 9.82504 26.993 11.5781 26.9999 13.4449C27.0068 15.3116 26.6591 17.0681 25.9567 18.7141C25.2544 20.3602 24.2982 21.7933 23.0881 23.0135C21.8781 24.2337 20.4535 25.2014 18.8142 25.9166C17.175 26.6319 15.422 26.993 13.5552 26.9999ZM13.5446 25.4999C16.8946 25.4875 19.7277 24.3145 22.0441 21.9808C24.3604 19.6472 25.5124 16.8054 25.4999 13.4554C25.4875 10.1055 24.3145 7.2723 21.9808 4.95595C19.6472 2.6396 16.8054 1.48765 13.4554 1.50009C10.1055 1.51253 7.2723 2.68556 4.95595 5.01918C2.6396 7.3528 1.48765 10.1946 1.50009 13.5446C1.51253 16.8946 2.68556 19.7277 5.01918 22.0441C7.3528 24.3604 10.1946 25.5124 13.5446 25.4999Z" fill="#002147" fill-opacity="0.2"/>
</svg>
