<svg width="14" height="19" viewBox="0 0 14 19" fill="none" xmlns="http://www.w3.org/2000/svg">
<path d="M0.00369797 15.7951L-1.61605e-05 14.7951L1.61536 14.7891L1.58593 6.86611C1.58108 5.55971 1.99027 4.40915 2.81351 3.41442C3.63674 2.41968 4.68252 1.79817 5.95083 1.54986L5.9488 1.00371C5.94777 0.725935 6.0439 0.489465 6.23718 0.294301C6.43046 0.0991367 6.66568 0.00104 6.94282 1.06393e-05C7.21997 -0.00101873 7.45666 0.0953252 7.6529 0.289043C7.84913 0.48276 7.94777 0.718507 7.9488 0.996284L7.95083 1.54244C9.22095 1.78131 10.2713 2.39504 11.1019 3.38363C11.9325 4.37222 12.3502 5.51972 12.3551 6.82612L12.3845 14.7491L13.9999 14.7431L14.0036 15.7431L0.00369797 15.7951ZM7.00997 18.3845C6.5648 18.3862 6.18426 18.2294 5.86834 17.9142C5.55243 17.5991 5.39364 17.2194 5.39199 16.7751L8.62275 16.7631C8.62441 17.2106 8.46732 17.5922 8.15148 17.9082C7.83563 18.2241 7.45513 18.3829 7.00997 18.3845ZM2.61536 14.7854L11.3845 14.7528L11.3551 6.82983C11.3506 5.61446 10.9198 4.58143 10.0628 3.73076C9.2058 2.8801 8.16961 2.45702 6.95423 2.46153C5.73885 2.46605 4.70583 2.89681 3.85516 3.75382C3.00449 4.61083 2.58142 5.64703 2.58593 6.8624L2.61536 14.7854Z" fill="#1A1C1A" fill-opacity="0.99"/>
</svg>
