<svg width="18" height="19" viewBox="0 0 18 19" fill="none" xmlns="http://www.w3.org/2000/svg">
<path d="M14 0C15.1 0 16.0417 0.391667 16.825 1.175C17.6083 1.95833 18 2.9 18 4C18 4.18333 17.9875 4.42917 17.9625 4.7375C17.9375 5.04583 17.9 5.4 17.85 5.8L16.475 15.875C16.3917 16.5083 16.1042 17.025 15.6125 17.425C15.1208 17.825 14.5583 18.025 13.925 18.025C13.5417 18.025 13.1875 17.9417 12.8625 17.775C12.5375 17.6083 12.2667 17.375 12.05 17.075L9.375 13.175C9.34167 13.1083 9.2875 13.0625 9.2125 13.0375C9.1375 13.0125 9.05833 13 8.975 13C8.90833 13 8.775 13.075 8.575 13.225L5.975 17C5.74167 17.3333 5.45417 17.5875 5.1125 17.7625C4.77083 17.9375 4.40833 18.025 4.025 18.025C3.39167 18.025 2.83333 17.8208 2.35 17.4125C1.86667 17.0042 1.58333 16.4833 1.5 15.85L0.15 5.8C0.1 5.4 0.0625 5.04583 0.0375 4.7375C0.0125 4.42917 0 4.18333 0 4C0 2.9 0.391667 1.95833 1.175 1.175C1.95833 0.391667 2.9 0 4 0C4.6 0 5.07917 0.0791667 5.4375 0.2375C5.79583 0.395833 6.14167 0.566667 6.475 0.75C6.80833 0.933333 7.1625 1.10417 7.5375 1.2625C7.9125 1.42083 8.4 1.5 9 1.5C9.6 1.5 10.0875 1.42083 10.4625 1.2625C10.8375 1.10417 11.1917 0.933333 11.525 0.75C11.8583 0.566667 12.2083 0.395833 12.575 0.2375C12.9417 0.0791667 13.4167 0 14 0Z" fill="white"/>
</svg>
