<svg width="17" height="18" viewBox="0 0 17 18" fill="none" xmlns="http://www.w3.org/2000/svg">
<g opacity="0.4">
<path d="M7.20475 17.5092L7.1813 11.1939L1.71618 14.3815L0.458089 12.2073L5.92319 9.0139L0.434611 5.88619L1.67651 3.70271L7.16516 6.84966L7.14161 0.509317L9.6416 0.500032L9.66515 6.84037L15.1303 3.65274L16.3884 5.82694L10.9232 8.99533L16.4118 12.148L15.1699 14.3315L9.68128 11.1846L9.70474 17.4999L7.20475 17.5092V17.5092" fill="#BA1A1A"/>
<path d="M7.20475 17.5092L7.1813 11.1939L1.71618 14.3815L0.458089 12.2073L5.92319 9.0139L0.434611 5.88619L1.67651 3.70271L7.16516 6.84966L7.14161 0.509317L9.6416 0.500032L9.66515 6.84037L15.1303 3.65274L16.3884 5.82694L10.9232 8.99533L16.4118 12.148L15.1699 14.3315L9.68128 11.1846L9.70474 17.4999L7.20475 17.5092V17.5092" stroke="black" stroke-linejoin="bevel"/>
</g>
</svg>
