<svg width="18" height="20" viewBox="0 0 18 20" fill="none" xmlns="http://www.w3.org/2000/svg">
<g opacity="0.2">
<path d="M7.49083 15.371L4.62254 12.5239L5.3391 11.802L7.48549 13.9325L11.7082 9.67833L12.4301 10.3949L7.49083 15.371V15.371M2.1688 18.7715C1.70855 18.7732 1.32369 18.6205 1.01421 18.3133C0.704732 18.0061 0.549138 17.6224 0.547429 17.1622L0.500003 4.393C0.498293 3.93275 0.651032 3.54788 0.958218 3.23841C1.2654 2.92893 1.64913 2.77334 2.10938 2.77163L3.87859 2.76506L3.87031 0.534304L4.94723 0.530304L4.95551 2.76106L12.1093 2.73449L12.101 0.503734L13.101 0.50002L13.1093 2.73077L14.8785 2.7242C15.3388 2.72249 15.7236 2.87523 16.0331 3.18242C16.3426 3.4896 16.4982 3.87332 16.4999 4.33358L16.5473 17.1027C16.549 17.563 16.3963 17.9478 16.0891 18.2573C15.7819 18.5668 15.3982 18.7224 14.938 18.7241L2.1688 18.7715V18.7715M2.16509 17.7715L14.9342 17.7241C15.0881 17.7235 15.2289 17.6589 15.3566 17.5302C15.4843 17.4015 15.5479 17.2603 15.5473 17.1064L15.5148 8.33726L1.51486 8.38926L1.54743 17.1584C1.548 17.3123 1.61263 17.4531 1.7413 17.5808C1.86998 17.7085 2.01125 17.7721 2.16509 17.7715V17.7715M1.51114 7.38926L15.511 7.33726L15.4999 4.33729C15.4993 4.18345 15.4347 4.04266 15.306 3.91493C15.1773 3.78721 15.0361 3.72363 14.8822 3.7242L2.11309 3.77163C1.95925 3.7722 1.81846 3.83682 1.69074 3.9655C1.56301 4.09418 1.49943 4.23544 1.5 4.38929L1.51114 7.38926V7.38926M1.51114 7.38926L1.5 4.38929C1.49943 4.23544 1.49891 4.09442 1.49843 3.96622C1.49795 3.83801 1.49772 3.77391 1.49772 3.77391V3.77391C1.49772 3.77391 1.49795 3.83801 1.49843 3.96622C1.49891 4.09442 1.49943 4.23544 1.5 4.38929L1.51114 7.38926V7.38926V7.38926" fill="#002147"/>
<path d="M7.49083 15.371L4.62254 12.5239L5.3391 11.802L7.48549 13.9325L11.7082 9.67833L12.4301 10.3949L7.49083 15.371V15.371M2.1688 18.7715C1.70855 18.7732 1.32369 18.6205 1.01421 18.3133C0.704732 18.0061 0.549138 17.6224 0.547429 17.1622L0.500003 4.393C0.498293 3.93275 0.651032 3.54788 0.958218 3.23841C1.2654 2.92893 1.64913 2.77334 2.10938 2.77163L3.87859 2.76506L3.87031 0.534304L4.94723 0.530304L4.95551 2.76106L12.1093 2.73449L12.101 0.503734L13.101 0.50002L13.1093 2.73077L14.8785 2.7242C15.3388 2.72249 15.7236 2.87523 16.0331 3.18242C16.3426 3.4896 16.4982 3.87332 16.4999 4.33358L16.5473 17.1027C16.549 17.563 16.3963 17.9478 16.0891 18.2573C15.7819 18.5668 15.3982 18.7224 14.938 18.7241L2.1688 18.7715V18.7715M2.16509 17.7715L14.9342 17.7241C15.0881 17.7235 15.2289 17.6589 15.3566 17.5302C15.4843 17.4015 15.5479 17.2603 15.5473 17.1064L15.5148 8.33726L1.51486 8.38926L1.54743 17.1584C1.548 17.3123 1.61263 17.4531 1.7413 17.5808C1.86998 17.7085 2.01125 17.7721 2.16509 17.7715V17.7715M1.51114 7.38926L15.511 7.33726L15.4999 4.33729C15.4993 4.18345 15.4347 4.04266 15.306 3.91493C15.1773 3.78721 15.0361 3.72363 14.8822 3.7242L2.11309 3.77163C1.95925 3.7722 1.81846 3.83682 1.69074 3.9655C1.56301 4.09418 1.49943 4.23544 1.5 4.38929L1.51114 7.38926V7.38926M1.51114 7.38926L1.5 4.38929C1.49943 4.23544 1.49891 4.09442 1.49843 3.96622C1.49795 3.83801 1.49772 3.77391 1.49772 3.77391V3.77391C1.49772 3.77391 1.49795 3.83801 1.49843 3.96622C1.49891 4.09442 1.49943 4.23544 1.5 4.38929L1.51114 7.38926V7.38926V7.38926" stroke="black" stroke-linejoin="bevel"/>
</g>
</svg>
