<svg width="18" height="18" viewBox="0 0 18 18" fill="none" xmlns="http://www.w3.org/2000/svg">
<path d="M9.04748 14.2306C9.26855 14.2298 9.45476 14.1528 9.60612 13.9996C9.75748 13.8463 9.83274 13.6592 9.83192 13.4381C9.8311 13.2171 9.75409 13.0308 9.60088 12.8795C9.44767 12.7281 9.26053 12.6529 9.03946 12.6537C8.81838 12.6545 8.63217 12.7315 8.48081 12.8847C8.32946 13.0379 8.25419 13.2251 8.25501 13.4462C8.25583 13.6672 8.33285 13.8534 8.48606 14.0048C8.63927 14.1562 8.82641 14.2314 9.04748 14.2306ZM8.51871 10.921L9.4841 10.9174C9.50812 10.4827 9.58854 10.1292 9.72535 9.85689C9.86216 9.58459 10.1445 9.23674 10.5724 8.81335C11.0169 8.36554 11.3475 7.96463 11.5641 7.61062C11.7808 7.25661 11.8882 6.84739 11.8865 6.38296C11.8836 5.59483 11.6043 4.96782 11.0488 4.50193C10.4932 4.03605 9.8372 3.80451 9.08076 3.80732C8.36153 3.80999 7.75169 4.00777 7.25122 4.40065C6.75075 4.79354 6.38479 5.24426 6.15335 5.75282L7.07399 6.13018C7.23289 5.76548 7.46086 5.44284 7.7579 5.16224C8.05494 4.88165 8.48422 4.74031 9.04576 4.73823C9.69447 4.73582 10.1688 4.91194 10.4689 5.2666C10.7689 5.62125 10.9197 6.01204 10.9213 6.43896C10.9226 6.78511 10.8302 7.09475 10.644 7.36788C10.4578 7.64101 10.2153 7.91595 9.91628 8.19271C9.33878 8.72947 8.96098 9.18408 8.78288 9.55654C8.60477 9.929 8.51672 10.3838 8.51871 10.921ZM9.03682 17.9999C7.79229 18.0045 6.62134 17.7727 5.52397 17.3045C4.4266 16.8362 3.47119 16.1987 2.65773 15.392C1.84427 14.5854 1.19912 13.6356 0.722293 12.5428C0.245463 11.4499 0.00473652 10.2813 0.000114177 9.03674C-0.00450817 7.79221 0.227307 6.62126 0.695559 5.52389C1.16381 4.42652 1.80128 3.47111 2.60796 2.65765C3.41465 1.84419 4.3644 1.19904 5.45723 0.722212C6.55006 0.245381 7.71874 0.00465508 8.96327 3.27412e-05C10.2078 -0.0045896 11.3788 0.227225 12.4761 0.695477C13.5735 1.16373 14.5289 1.8012 15.3424 2.60788C16.1558 3.41457 16.801 4.36432 17.2778 5.45715C17.7546 6.54998 17.9954 7.71866 18 8.96319C18.0046 10.2077 17.7728 11.3787 17.3045 12.476C16.8363 13.5734 16.1988 14.5288 15.3921 15.3423C14.5854 16.1557 13.6357 16.8009 12.5429 17.2777C11.45 17.7545 10.2813 17.9953 9.03682 17.9999ZM9.02976 16.9999C11.2631 16.9916 13.1519 16.2096 14.6961 14.6538C16.2403 13.0981 17.0083 11.2036 17 8.97025C16.9917 6.73693 16.2097 4.84816 14.6539 3.30393C13.0982 1.75969 11.2037 0.991725 8.97033 1.00002C6.73701 1.00831 4.84824 1.79033 3.30401 3.34608C1.75977 4.90183 0.991806 6.79636 1.0001 9.02968C1.0084 11.263 1.79042 13.1518 3.34616 14.696C4.90191 16.2402 6.79644 17.0082 9.02976 16.9999Z" fill="#1A1C1A" fill-opacity="0.99"/>
</svg>
