<svg width="27" height="28" viewBox="0 0 27 28" fill="none" xmlns="http://www.w3.org/2000/svg">
<path d="M21 0C22.65 0 24.0625 0.5875 25.2375 1.7625C26.4125 2.9375 27 4.35 27 6C27 6.275 26.9813 6.64375 26.9438 7.10625C26.9063 7.56875 26.85 8.1 26.775 8.7L24.7125 23.8125C24.5875 24.7625 24.1563 25.5375 23.4188 26.1375C22.6813 26.7375 21.8375 27.0375 20.8875 27.0375C20.3125 27.0375 19.7813 26.9125 19.2938 26.6625C18.8063 26.4125 18.4 26.0625 18.075 25.6125L14.0625 19.7625C14.0125 19.6625 13.9313 19.5937 13.8188 19.5562C13.7063 19.5187 13.5875 19.5 13.4625 19.5C13.3625 19.5 13.1625 19.6125 12.8625 19.8375L8.9625 25.5C8.6125 26 8.18125 26.3812 7.66875 26.6437C7.15625 26.9062 6.6125 27.0375 6.0375 27.0375C5.0875 27.0375 4.25 26.7312 3.525 26.1187C2.8 25.5062 2.375 24.725 2.25 23.775L0.225 8.7C0.15 8.1 0.09375 7.56875 0.05625 7.10625C0.01875 6.64375 0 6.275 0 6C0 4.35 0.5875 2.9375 1.7625 1.7625C2.9375 0.5875 4.35 0 6 0C6.9 0 7.61875 0.11875 8.15625 0.35625C8.69375 0.59375 9.2125 0.85 9.7125 1.125C10.2125 1.4 10.7437 1.65625 11.3062 1.89375C11.8687 2.13125 12.6 2.25 13.5 2.25C14.4 2.25 15.1313 2.13125 15.6938 1.89375C16.2563 1.65625 16.7875 1.4 17.2875 1.125C17.7875 0.85 18.3125 0.59375 18.8625 0.35625C19.4125 0.11875 20.125 0 21 0V0M21 3C20.425 3 19.9188 3.11875 19.4813 3.35625C19.0438 3.59375 18.5625 3.85 18.0375 4.125C17.5125 4.4 16.9 4.65625 16.2 4.89375C15.5 5.13125 14.6 5.25 13.5 5.25C12.4 5.25 11.5 5.13125 10.8 4.89375C10.1 4.65625 9.4875 4.4 8.9625 4.125C8.4375 3.85 7.95625 3.59375 7.51875 3.35625C7.08125 3.11875 6.575 3 6 3C5.175 3 4.46875 3.29375 3.88125 3.88125C3.29375 4.46875 3 5.175 3 6C3 6.2 3.0125 6.4875 3.0375 6.8625C3.0625 7.2375 3.1125 7.675 3.1875 8.175L5.25 23.3625C5.275 23.5625 5.3625 23.7187 5.5125 23.8312C5.6625 23.9437 5.8375 24 6.0375 24C6.1625 24 6.275 23.975 6.375 23.925C6.475 23.875 6.55 23.8 6.6 23.7L10.3875 18.15C10.7375 17.65 11.1875 17.25 11.7375 16.95C12.2875 16.65 12.875 16.5 13.5 16.5C14.125 16.5 14.7125 16.65 15.2625 16.95C15.8125 17.25 16.2625 17.65 16.6125 18.15L20.475 23.8125C20.525 23.8875 20.5875 23.9438 20.6625 23.9813C20.7375 24.0188 20.825 24.0375 20.925 24.0375C21.125 24.0375 21.3063 23.9812 21.4688 23.8687C21.6312 23.7562 21.725 23.6 21.75 23.4L23.8125 8.175C23.8875 7.675 23.9375 7.2375 23.9625 6.8625C23.9875 6.4875 24 6.2 24 6C24 5.175 23.7062 4.46875 23.1187 3.88125C22.5312 3.29375 21.825 3 21 3V3M13.5 13.5V13.5V13.5V13.5V13.5V13.5V13.5V13.5V13.5V13.5V13.5V13.5V13.5V13.5V13.5V13.5V13.5V13.5V13.5V13.5V13.5V13.5V13.5V13.5V13.5V13.5V13.5V13.5V13.5V13.5V13.5V13.5V13.5V13.5" fill="white"/>
</svg>
