<svg width="29" height="29" viewBox="0 0 29 29" fill="none" xmlns="http://www.w3.org/2000/svg">
<path d="M20.2499 18.4759C19.1442 18.4759 18.2043 18.0889 17.4303 17.3148C16.6562 16.5408 16.2692 15.6009 16.2692 14.4952C16.2692 13.3894 16.6562 12.4495 17.4303 11.6755C18.2043 10.9014 19.1442 10.5144 20.2499 10.5144C21.3557 10.5144 22.2956 10.9014 23.0696 11.6755C23.8437 12.4495 24.2307 13.3894 24.2307 14.4952C24.2307 15.6009 23.8437 16.5408 23.0696 17.3148C22.2956 18.0889 21.3557 18.4759 20.2499 18.4759ZM20.2499 16.2259C20.7326 16.2259 21.1418 16.0582 21.4774 15.7226C21.8129 15.387 21.9807 14.9779 21.9807 14.4952C21.9807 14.0125 21.8129 13.6033 21.4774 13.2677C21.1418 12.9322 20.7326 12.7644 20.2499 12.7644C19.7672 12.7644 19.3581 12.9322 19.0225 13.2677C18.6869 13.6033 18.5192 14.0125 18.5192 14.4952C18.5192 14.9779 18.6869 15.387 19.0225 15.7226C19.3581 16.0582 19.7672 16.2259 20.2499 16.2259ZM11.7692 28.1537V24.323C11.7692 23.8887 11.8727 23.4803 12.0797 23.0977C12.2867 22.7151 12.5764 22.4101 12.949 22.1826C13.6963 21.7369 14.4844 21.3673 15.3133 21.0741C16.1423 20.7808 16.9888 20.5638 17.8528 20.423L20.2499 23.4375L22.6326 20.423C23.5013 20.5638 24.3465 20.7808 25.1683 21.0741C25.99 21.3673 26.7765 21.7369 27.5278 22.1826C27.9009 22.4095 28.1922 22.7134 28.4018 23.0942C28.6114 23.4749 28.7211 23.8797 28.7307 24.3086V28.1537H11.7692ZM13.9817 25.9038H19.3298L17.0019 22.9383C16.472 23.0725 15.9568 23.2469 15.4564 23.4616C14.9559 23.6762 14.4644 23.9153 13.9817 24.1787V25.9038ZM21.1701 25.9038H26.4807V24.1787C26.0134 23.8999 25.5295 23.6595 25.0291 23.4576C24.5286 23.2557 24.0135 23.0874 23.4836 22.9528L21.1701 25.9038ZM2.71839 25.4999C1.96574 25.4999 1.32451 25.2344 0.794705 24.7034C0.264902 24.1724 0 23.534 0 22.7884V2.71152C0 1.96585 0.265503 1.32751 0.796508 0.796509C1.32751 0.265503 1.96585 0 2.71152 0H22.7884C23.534 0 24.1724 0.265503 24.7034 0.796509C25.2344 1.32751 25.4999 1.96585 25.4999 2.71152V9.23068C25.1864 8.87492 24.8523 8.54175 24.4975 8.23119C24.1427 7.92062 23.7269 7.70476 23.2499 7.58361V2.71152C23.2499 2.57689 23.2067 2.46631 23.1201 2.37976C23.0336 2.29322 22.923 2.24995 22.7884 2.24995H2.71152C2.57689 2.24995 2.46631 2.29322 2.37976 2.37976C2.29322 2.46631 2.24995 2.57689 2.24995 2.71152V22.7884C2.24995 22.923 2.29322 23.0336 2.37976 23.1201C2.46631 23.2067 2.57689 23.2499 2.71152 23.2499H8.3307C8.28455 23.4288 8.24994 23.6076 8.22686 23.7865C8.20379 23.9653 8.19225 24.1441 8.19225 24.323V25.4999H2.71839ZM5.62497 8.04801H16.4423C16.9481 7.69225 17.4947 7.42783 18.0822 7.25476C18.6697 7.08169 19.2672 6.98554 19.8749 6.96631V5.79806H5.62497V8.04801ZM5.62497 13.8749H12.7644C12.7836 13.4749 12.8374 13.0898 12.9259 12.7197C13.0144 12.3495 13.1297 11.9846 13.2721 11.625H5.62497V13.8749ZM5.62497 19.7018H10.3096C10.5749 19.4864 10.8543 19.2888 11.1475 19.109C11.4408 18.9292 11.7403 18.7691 12.0461 18.6288V17.4519H5.62497V19.7018ZM2.24995 23.2499C2.24995 23.2499 2.24995 23.2019 2.24995 23.1057C2.24995 23.0095 2.24995 22.9038 2.24995 22.7884V2.71152C2.24995 2.59612 2.24995 2.49035 2.24995 2.39419C2.24995 2.29803 2.24995 2.24995 2.24995 2.24995C2.24995 2.24995 2.24995 2.29803 2.24995 2.39419C2.24995 2.49035 2.24995 2.59612 2.24995 2.71152V7.56053C2.24995 7.36053 2.24995 7.20669 2.24995 7.099C2.24995 6.9913 2.24995 6.93746 2.24995 6.93746C2.24995 6.93746 2.24995 7.67433 2.24995 9.14809C2.24995 10.6218 2.24995 12.4042 2.24995 14.4952C2.24995 15.075 2.24995 15.6548 2.24995 16.2346C2.24995 16.8144 2.24995 17.3941 2.24995 17.9739C2.24995 18.1513 2.24995 18.3398 2.24995 18.5393C2.24995 18.7389 2.24995 18.9273 2.24995 19.1047C2.24995 19.7951 2.24995 20.486 2.24995 21.1773C2.24995 21.8687 2.24995 22.5596 2.24995 23.2499Z" fill="#002147"/>
</svg>
