<svg width="34" height="35" viewBox="0 0 34 35" fill="none" xmlns="http://www.w3.org/2000/svg">
<path d="M26.4444 0C28.5222 0 30.3009 0.760518 31.7806 2.28155C33.2602 3.80259 34 5.63107 34 7.76699C34 8.12298 33.9764 8.60032 33.9292 9.19903C33.8819 9.79774 33.8111 10.4854 33.7167 11.2621L31.1194 30.8252C30.962 32.055 30.419 33.0583 29.4903 33.835C28.5616 34.6117 27.4991 35 26.3028 35C25.5787 35 24.9097 34.8382 24.2958 34.5146C23.6819 34.1909 23.1704 33.7379 22.7611 33.1553L17.7083 25.5825C17.6454 25.4531 17.5431 25.3641 17.4014 25.3155C17.2597 25.267 17.1102 25.2427 16.9528 25.2427C16.8269 25.2427 16.575 25.3884 16.1972 25.6796L11.2861 33.0097C10.8454 33.657 10.3023 34.1505 9.65694 34.4903C9.01157 34.8301 8.32685 35 7.60278 35C6.40648 35 5.35185 34.6036 4.43889 33.8107C3.52593 33.0178 2.99074 32.0065 2.83333 30.7767L0.283333 11.2621C0.188889 10.4854 0.118056 9.79774 0.0708333 9.19903C0.0236111 8.60032 0 8.12298 0 7.76699C0 5.63107 0.739815 3.80259 2.21944 2.28155C3.69907 0.760518 5.47778 0 7.55556 0C8.68889 0 9.59398 0.153722 10.2708 0.461165C10.9477 0.768608 11.6009 1.10032 12.2306 1.45631C12.8602 1.8123 13.5292 2.14401 14.2375 2.45146C14.9458 2.7589 15.8667 2.91262 17 2.91262C18.1333 2.91262 19.0542 2.7589 19.7625 2.45146C20.4708 2.14401 21.1398 1.8123 21.7694 1.45631C22.3991 1.10032 23.0602 0.768608 23.7528 0.461165C24.4454 0.153722 25.3426 0 26.4444 0Z" fill="white"/>
</svg>
