<svg width="19" height="14" viewBox="0 0 19 14" fill="none" xmlns="http://www.w3.org/2000/svg">
<path d="M0 13.2308V11.5846C0 11.1205 0.120192 10.7215 0.360577 10.3875C0.600962 10.0535 0.924008 9.78663 1.32971 9.58679C2.19709 9.17381 3.05834 8.84456 3.91347 8.59904C4.7686 8.35353 5.79744 8.23077 7.00001 8.23077C8.20257 8.23077 9.23142 8.35353 10.0865 8.59904C10.9417 8.84456 11.8029 9.17381 12.6703 9.58679C13.076 9.78663 13.399 10.0535 13.6394 10.3875C13.8798 10.7215 14 11.1205 14 11.5846V13.2308H0V13.2308M16 13.2308V11.5385C16 10.959 15.8827 10.412 15.6481 9.89747C15.4136 9.38296 15.0809 8.9415 14.65 8.57308C15.141 8.67308 15.6141 8.81186 16.0692 8.98943C16.5244 9.16699 16.9744 9.36667 17.4192 9.58847C17.8526 9.80642 18.1923 10.0853 18.4385 10.4252C18.6846 10.7651 18.8077 11.1362 18.8077 11.5385V13.2308H16V13.2308M7.00001 6.00001C6.16924 6.00001 5.46154 5.7077 4.87692 5.12309C4.29231 4.53847 4 3.83078 4 3.00001C4 2.16924 4.29231 1.46154 4.87692 0.876926C5.46154 0.292309 6.16924 0 7.00001 0C7.83078 0 8.53847 0.292309 9.12309 0.876926C9.7077 1.46154 10 2.16924 10 3.00001C10 3.83078 9.7077 4.53847 9.12309 5.12309C8.53847 5.7077 7.83078 6.00001 7.00001 6.00001V6.00001M14.2693 3.00001C14.2693 3.83078 13.9755 4.53847 13.388 5.12309C12.8005 5.7077 12.0942 6.00001 11.2692 6.00001C11.2269 6.00001 11.1731 5.9952 11.1077 5.98559C11.0423 5.97597 10.9885 5.9654 10.9462 5.95386C11.2849 5.53895 11.5452 5.07866 11.7271 4.57299C11.9091 4.06732 12 3.5422 12 2.99763C12 2.45306 11.9048 1.9327 11.7144 1.43654C11.524 0.940387 11.268 0.476925 10.9462 0.0461548C11 0.0269236 11.0539 0.0144236 11.1077 0.00865479C11.1616 0.00288493 11.2154 0 11.2692 0C12.0942 0 12.8005 0.292309 13.388 0.876926C13.9755 1.46154 14.2693 2.16924 14.2693 3.00001V3.00001M1.00001 12.2308H13V11.5846C13 11.35 12.9414 11.1449 12.824 10.9692C12.7067 10.7936 12.4962 10.6257 12.1923 10.4654C11.4462 10.0667 10.6596 9.76123 9.8327 9.54905C9.00577 9.33687 8.06154 9.23078 7.00001 9.23078C5.93847 9.23078 4.99424 9.33687 4.16731 9.54905C3.34039 9.76123 2.55385 10.0667 1.8077 10.4654C1.50385 10.6257 1.29327 10.7936 1.17597 10.9692C1.05866 11.1449 1.00001 11.35 1.00001 11.5846V12.2308V12.2308M7.00001 5.00001C7.55001 5.00001 8.02084 4.80417 8.41251 4.41251C8.80417 4.02084 9.00001 3.55001 9.00001 3.00001C9.00001 2.45001 8.80417 1.97917 8.41251 1.58751C8.02084 1.19584 7.55001 1.00001 7.00001 1.00001C6.45001 1.00001 5.97917 1.19584 5.58751 1.58751C5.19584 1.97917 5.00001 2.45001 5.00001 3.00001C5.00001 3.55001 5.19584 4.02084 5.58751 4.41251C5.97917 4.80417 6.45001 5.00001 7.00001 5.00001V5.00001M7.00001 12.2308V12.2308V12.2308V12.2308V12.2308V12.2308V12.2308V12.2308V12.2308V12.2308V12.2308V12.2308V12.2308M7.00001 3.00001V3.00001V3.00001V3.00001V3.00001V3.00001V3.00001V3.00001V3.00001V3.00001" fill="#1A1C1A" fill-opacity="0.6"/>
</svg>
