<svg width="16" height="19" viewBox="0 0 16 19" fill="none" xmlns="http://www.w3.org/2000/svg">
<path d="M1.61539 18.2308C1.15513 18.2308 0.770835 18.0766 0.462501 17.7683C0.154167 17.4599 0 17.0756 0 16.6154V3.84615C0 3.3859 0.154167 3.0016 0.462501 2.69327C0.770835 2.38493 1.15513 2.23077 1.61539 2.23077H3.38461V0H4.46154V2.23077H11.6154V0H12.6154V2.23077H14.3846C14.8449 2.23077 15.2292 2.38493 15.5375 2.69327C15.8458 3.0016 16 3.3859 16 3.84615V16.6154C16 17.0756 15.8458 17.4599 15.5375 17.7683C15.2292 18.0766 14.8449 18.2308 14.3846 18.2308H1.61539ZM1.61539 17.2308H14.3846C14.5385 17.2308 14.6795 17.1667 14.8077 17.0385C14.9359 16.9103 15 16.7692 15 16.6154V7.84615H1.00001V16.6154C1.00001 16.7692 1.06411 16.9103 1.19231 17.0385C1.32052 17.1667 1.46154 17.2308 1.61539 17.2308ZM1.00001 6.84615H15V3.84615C15 3.69231 14.9359 3.55128 14.8077 3.42308C14.6795 3.29488 14.5385 3.23077 14.3846 3.23077H1.61539C1.46154 3.23077 1.32052 3.29488 1.19231 3.42308C1.06411 3.55128 1.00001 3.69231 1.00001 3.84615V6.84615ZM1.00001 6.84615V3.84615C1.00001 3.69231 1.00001 3.55128 1.00001 3.42308C1.00001 3.29488 1.00001 3.23077 1.00001 3.23077C1.00001 3.23077 1.00001 3.29488 1.00001 3.42308C1.00001 3.55128 1.00001 3.69231 1.00001 3.84615V6.84615Z" fill="#1A1C1A" fill-opacity="0.6"/>
</svg>
