<svg width="17" height="17" viewBox="0 0 17 17" fill="none" xmlns="http://www.w3.org/2000/svg">
<path d="M15.7164 16.3476L9.43168 10.1094C8.93327 10.5369 8.3595 10.8685 7.71037 11.1043C7.06124 11.34 6.40847 11.4591 5.75206 11.4615C4.15336 11.4675 2.79649 10.9171 1.68148 9.81031C0.566459 8.70354 0.00598226 7.3508 4.4449e-05 5.7521C-0.00589336 4.15339 0.54452 2.79653 1.65128 1.68151C2.75805 0.566493 4.11079 0.00601543 5.70949 7.76213e-05C7.3082 -0.00586019 8.66506 0.544553 9.78008 1.65132C10.8951 2.75808 11.4556 4.11082 11.4615 5.70953C11.4641 6.40439 11.3435 7.07728 11.0998 7.72819C10.856 8.3791 10.535 8.93607 10.1367 9.39909L16.4215 15.6373L15.7164 16.3476ZM5.74835 10.4615C7.07526 10.4566 8.19375 9.99573 9.10381 9.07888C10.0139 8.16203 10.4664 7.04015 10.4615 5.71324C10.4566 4.38633 9.9957 3.26784 9.07885 2.35778C8.162 1.44772 7.04012 0.995148 5.71321 1.00008C4.38629 1.00501 3.26781 1.46589 2.35774 2.38274C1.44768 3.29959 0.995115 4.42147 1.00004 5.74838C1.00497 7.0753 1.46586 8.19378 2.38271 9.10385C3.29956 10.0139 4.42144 10.4665 5.74835 10.4615Z" fill="#44474E" fill-opacity="0.4"/>
</svg>
