<svg width="18" height="18" viewBox="0 0 18 18" fill="none" xmlns="http://www.w3.org/2000/svg">
<path d="M6.87693 18L6.51539 15.1077C6.19616 15.0115 5.85097 14.8603 5.47981 14.6539C5.10866 14.4474 4.79296 14.2263 4.5327 13.9904L1.86539 15.125L0 11.875L2.30577 10.1365C2.27628 9.95577 2.25192 9.76956 2.23269 9.57789C2.21346 9.38622 2.20385 9.20001 2.20385 9.01924C2.20385 8.85129 2.21346 8.67469 2.23269 8.48943C2.25192 8.30417 2.27628 8.09552 2.30577 7.86347L0 6.12501L1.86539 2.91346L4.51347 4.02885C4.81219 3.78013 5.13526 3.55577 5.4827 3.35577C5.83013 3.15577 6.16795 3.00128 6.49616 2.89231L6.87693 0H10.6077L10.9692 2.91154C11.3526 3.04616 11.6914 3.20064 11.9856 3.375C12.2798 3.54936 12.5827 3.76731 12.8942 4.02885L15.6192 2.91346L17.4846 6.12501L15.1019 7.92116C15.1571 8.12757 15.1878 8.31699 15.1942 8.48943C15.2007 8.66187 15.2039 8.83206 15.2039 9.00001C15.2039 9.15513 15.1974 9.31892 15.1846 9.49135C15.1718 9.66379 15.1423 9.87244 15.0962 10.1173L17.4404 11.875L15.575 15.125L12.8942 13.9712C12.5827 14.2327 12.2692 14.4571 11.9539 14.6442C11.6385 14.8314 11.3103 14.9795 10.9692 15.0885L10.6077 18H6.87693ZM7.74232 17H9.69808L10.0673 14.2923C10.5712 14.159 11.0247 13.976 11.4279 13.7433C11.8311 13.5106 12.2417 13.1917 12.6596 12.7865L15.1539 13.85L16.1481 12.15L13.9596 10.5058C14.043 10.2212 14.0981 9.9593 14.125 9.7202C14.1519 9.4811 14.1654 9.24103 14.1654 9.00001C14.1654 8.74616 14.1519 8.5061 14.125 8.27981C14.0981 8.05353 14.043 7.80449 13.9596 7.5327L16.1865 5.85001L15.1923 4.15001L12.6404 5.21924C12.3378 4.88719 11.9401 4.57597 11.4471 4.28558C10.9542 3.9952 10.4878 3.80257 10.0481 3.7077L9.74232 1.00001H7.74809L7.43655 3.68847C6.9327 3.79616 6.46956 3.96956 6.04712 4.20866C5.62469 4.44776 5.20449 4.77629 4.78655 5.19424L2.29232 4.15001L1.29808 5.85001L3.46732 7.46924C3.38398 7.6936 3.32565 7.93719 3.29232 8.20001C3.25898 8.46283 3.24232 8.7359 3.24232 9.01924C3.24232 9.27308 3.25898 9.52501 3.29232 9.77501C3.32565 10.025 3.37757 10.2686 3.44809 10.5058L1.29808 12.15L2.29232 13.85L4.76732 12.8C5.15962 13.1962 5.56699 13.5138 5.98943 13.7529C6.41187 13.992 6.88783 14.1782 7.41732 14.3115L7.74232 17ZM8.71539 11.5C9.41283 11.5 10.0039 11.2577 10.4885 10.7731C10.9731 10.2885 11.2154 9.69744 11.2154 9.00001C11.2154 8.30257 10.9731 7.71154 10.4885 7.22693C10.0039 6.74231 9.41283 6.5 8.71539 6.5C8.01411 6.5 7.42212 6.74231 6.93943 7.22693C6.45673 7.71154 6.21539 8.30257 6.21539 9.00001C6.21539 9.69744 6.45673 10.2885 6.93943 10.7731C7.42212 11.2577 8.01411 11.5 8.71539 11.5Z" fill="#1A1C1A" fill-opacity="0.6"/>
</svg>
