<svg width="17" height="19" viewBox="0 0 17 19" fill="none" xmlns="http://www.w3.org/2000/svg">
<path d="M0.865375 18.9999C0.620506 18.9999 0.415059 18.9137 0.249036 18.7413C0.0830119 18.5688 0 18.3602 0 18.1153V13.2307C0 12.732 0.176601 12.306 0.529803 11.9528C0.883006 11.5996 1.30896 11.423 1.80768 11.423H2V7.34611C2 6.84739 2.1766 6.42143 2.5298 6.06823C2.88301 5.71503 3.30896 5.53843 3.80768 5.53843H7.74998V4.0692C7.45639 3.87561 7.21633 3.64836 7.02979 3.38747C6.84325 3.12657 6.74998 2.81536 6.74998 2.45382C6.74998 2.22946 6.79357 2.01248 6.88075 1.80287C6.96793 1.59325 7.0987 1.40127 7.27305 1.22691L8.49996 0L9.72687 1.22691C9.90123 1.40127 10.032 1.59325 10.1192 1.80287C10.2064 2.01248 10.2499 2.22946 10.2499 2.45382C10.2499 2.81536 10.1567 3.12657 9.97014 3.38747C9.7836 3.64836 9.54353 3.87561 9.24994 4.0692V5.53843H13.1922C13.691 5.53843 14.1169 5.71503 14.4701 6.06823C14.8233 6.42143 14.9999 6.84739 14.9999 7.34611V11.423H15.1922C15.691 11.423 16.1169 11.5996 16.4701 11.9528C16.8233 12.306 16.9999 12.732 16.9999 13.2307V18.1153C16.9999 18.3602 16.9137 18.5688 16.7413 18.7413C16.5688 18.9137 16.3602 18.9999 16.1153 18.9999H0.865375ZM3.49996 11.423H13.5V7.34611C13.5 7.25636 13.4711 7.18263 13.4134 7.12494C13.3557 7.06724 13.282 7.03839 13.1922 7.03839H3.80768C3.71793 7.03839 3.6442 7.06724 3.58651 7.12494C3.52881 7.18263 3.49996 7.25636 3.49996 7.34611V11.423ZM1.49996 17.5H15.5V13.2307C15.5 13.141 15.4711 13.0672 15.4134 13.0095C15.3557 12.9518 15.282 12.923 15.1922 12.923H1.80768C1.71793 12.923 1.6442 12.9518 1.58651 13.0095C1.52881 13.0672 1.49996 13.141 1.49996 13.2307V17.5ZM3.49996 11.423C3.49996 11.423 3.52881 11.423 3.58651 11.423C3.6442 11.423 3.71793 11.423 3.80768 11.423H13.1922C13.282 11.423 13.3557 11.423 13.4134 11.423C13.4711 11.423 13.5 11.423 13.5 11.423H3.49996ZM1.49996 17.5C1.49996 17.5 1.52881 17.5 1.58651 17.5C1.6442 17.5 1.71793 17.5 1.80768 17.5H15.1922C15.282 17.5 15.3557 17.5 15.4134 17.5C15.4711 17.5 15.5 17.5 15.5 17.5H1.49996ZM14.9999 11.423H2H14.9999Z" fill="#708AB5"/>
</svg>
