<svg width="15" height="19" viewBox="0 0 15 19" fill="none" xmlns="http://www.w3.org/2000/svg">
<path d="M7.4982 18.8461C5.35708 18.8461 3.5721 18.1105 2.14326 16.6394C0.714419 15.1682 0 13.3372 0 11.1461C0 9.59483 0.62083 7.89452 1.86249 6.04517C3.10415 4.19582 4.98331 2.18076 7.49996 0C10.0166 2.18076 11.8958 4.19582 13.1374 6.04517C14.3791 7.89452 14.9999 9.59483 14.9999 11.1461C14.9999 13.3372 14.2849 15.1682 12.8549 16.6394C11.4249 18.1105 9.63931 18.8461 7.4982 18.8461V18.8461M7.49996 17.3461C9.2333 17.3461 10.6666 16.7586 11.8 15.5836C12.9333 14.4086 13.5 12.9294 13.5 11.1461C13.5 9.92944 12.9958 8.55444 11.9875 7.02111C10.9791 5.48777 9.4833 3.81277 7.49996 1.99611C5.51663 3.81277 4.0208 5.48777 3.01246 7.02111C2.00413 8.55444 1.49996 9.92944 1.49996 11.1461C1.49996 12.9294 2.06663 14.4086 3.19996 15.5836C4.3333 16.7586 5.76663 17.3461 7.49996 17.3461V17.3461M4.74998 15.0961H10.2499V13.5961H4.74998V15.0961V15.0961M6.74998 12.0961H8.24994V10.0961H10.2499V8.59612H8.24994V6.59612H6.74998V8.59612H4.74998V10.0961H6.74998V12.0961V12.0961M7.49996 9.42303V9.42303V9.42303V9.42303V9.42303V9.42303V9.42303V9.42303V9.42303V9.42303" fill="#708AB5"/>
</svg>
