<svg width="27" height="24" viewBox="0 0 27 24" fill="none" xmlns="http://www.w3.org/2000/svg">
<path d="M2.2596 23.7499C1.62819 23.7499 1.09374 23.5312 0.656244 23.0937C0.218748 22.6562 0 22.1217 0 21.4903V7.2596C0 6.62819 0.218748 6.09374 0.656244 5.65624C1.09374 5.21875 1.62819 5 2.2596 5H6.0769L8.3894 2.5H15.3846V4.37495H9.20668L6.91341 6.87495H2.2596C2.14741 6.87495 2.05526 6.91101 1.98314 6.98314C1.91101 7.05526 1.87495 7.14741 1.87495 7.2596V21.4903C1.87495 21.6025 1.91101 21.6947 1.98314 21.7668C2.05526 21.8389 2.14741 21.875 2.2596 21.875H21.4903C21.6025 21.875 21.6947 21.8389 21.7668 21.7668C21.8389 21.6947 21.875 21.6025 21.875 21.4903V10.8654H23.7499V21.4903C23.7499 22.1217 23.5312 22.6562 23.0937 23.0937C22.6562 23.5312 22.1217 23.7499 21.4903 23.7499H2.2596ZM21.875 6.87495V4.37495H19.375V2.5H21.875V0H23.7499V2.5H26.2499V4.37495H23.7499V6.87495H21.875ZM11.875 19.5191C13.3092 19.5191 14.5252 19.0204 15.5228 18.0228C16.5204 17.0252 17.0191 15.8092 17.0191 14.375C17.0191 12.9407 16.5204 11.7247 15.5228 10.7271C14.5252 9.72955 13.3092 9.23076 11.875 9.23076C10.4407 9.23076 9.22473 9.72955 8.22714 10.7271C7.22955 11.7247 6.73076 12.9407 6.73076 14.375C6.73076 15.8092 7.22955 17.0252 8.22714 18.0228C9.22473 19.0204 10.4407 19.5191 11.875 19.5191ZM11.875 17.6442C10.9519 17.6442 10.1762 17.3301 9.54802 16.7019C8.91982 16.0737 8.60571 15.298 8.60571 14.375C8.60571 13.4519 8.91982 12.6762 9.54802 12.048C10.1762 11.4198 10.9519 11.1057 11.875 11.1057C12.798 11.1057 13.5737 11.4198 14.2019 12.048C14.8301 12.6762 15.1442 13.4519 15.1442 14.375C15.1442 15.298 14.8301 16.0737 14.2019 16.7019C13.5737 17.3301 12.798 17.6442 11.875 17.6442Z" fill="#74777F"/>
</svg>
