<svg width="24" height="24" viewBox="0 0 24 24" fill="none" xmlns="http://www.w3.org/2000/svg">
<path d="M2.25 23C1.85417 22.9167 1.48438 22.7031 1.14062 22.3594C0.796875 22.0156 0.583333 21.6458 0.5 21.25L21.25 0.5C21.6875 0.604167 22.0625 0.817708 22.375 1.14062C22.6875 1.46354 22.9062 1.83333 23.0312 2.25L2.25 23V23M0.5 15.125V11.625L11.625 0.5H15.125L0.5 15.125V15.125M0.5 5.5V3C0.5 2.3125 0.744792 1.72396 1.23438 1.23438C1.72396 0.744792 2.3125 0.5 3 0.5H5.5L0.5 5.5V5.5M18 23L23 18V20.5C23 21.1875 22.7552 21.776 22.2656 22.2656C21.776 22.7552 21.1875 23 20.5 23H18V23M8.375 23L23 8.375V11.875L11.875 23H8.375V23" fill="#50616B"/>
<path d="M2.25 23C1.85417 22.9167 1.48438 22.7031 1.14062 22.3594C0.796875 22.0156 0.583333 21.6458 0.5 21.25L21.25 0.5C21.6875 0.604167 22.0625 0.817708 22.375 1.14062C22.6875 1.46354 22.9062 1.83333 23.0312 2.25L2.25 23V23M0.5 15.125V11.625L11.625 0.5H15.125L0.5 15.125V15.125M0.5 5.5V3C0.5 2.3125 0.744792 1.72396 1.23438 1.23438C1.72396 0.744792 2.3125 0.5 3 0.5H5.5L0.5 5.5V5.5M18 23L23 18V20.5C23 21.1875 22.7552 21.776 22.2656 22.2656C21.776 22.7552 21.1875 23 20.5 23H18V23M8.375 23L23 8.375V11.875L11.875 23H8.375V23" stroke="black" stroke-linejoin="bevel"/>
</svg>
