<svg width="21" height="21" viewBox="0 0 21 21" fill="none" xmlns="http://www.w3.org/2000/svg">
<path d="M10.5 20.5C9.11667 20.5 7.81667 20.2375 6.6 19.7125C5.38333 19.1875 4.325 18.475 3.425 17.575C2.525 16.675 1.8125 15.6167 1.2875 14.4C0.7625 13.1833 0.5 11.8833 0.5 10.5C0.5 9.11667 0.7625 7.81667 1.2875 6.6C1.8125 5.38333 2.525 4.325 3.425 3.425C4.325 2.525 5.38333 1.8125 6.6 1.2875C7.81667 0.7625 9.11667 0.5 10.5 0.5C11.8833 0.5 13.1833 0.7625 14.4 1.2875C15.6167 1.8125 16.675 2.525 17.575 3.425C18.475 4.325 19.1875 5.38333 19.7125 6.6C20.2375 7.81667 20.5 9.11667 20.5 10.5C20.5 11.8833 20.2375 13.1833 19.7125 14.4C19.1875 15.6167 18.475 16.675 17.575 17.575C16.675 18.475 15.6167 19.1875 14.4 19.7125C13.1833 20.2375 11.8833 20.5 10.5 20.5ZM11.5 18.425C13.4833 18.175 15.1458 17.3042 16.4875 15.8125C17.8292 14.3208 18.5 12.55 18.5 10.5C18.5 8.45 17.8292 6.67917 16.4875 5.1875C15.1458 3.69583 13.4833 2.825 11.5 2.575V18.425Z" fill="white" stroke="black" stroke-linejoin="bevel"/>
</svg>
