<svg width="15" height="15" viewBox="0 0 15 15" fill="none" xmlns="http://www.w3.org/2000/svg">
<path d="M7.5 15C6.4625 15 5.4875 14.8031 4.575 14.4094C3.6625 14.0156 2.86875 13.4812 2.19375 12.8062C1.51875 12.1312 0.984375 11.3375 0.590625 10.425C0.196875 9.5125 0 8.5375 0 7.5H1.5C1.5 8.9375 1.95312 10.2062 2.85938 11.3062C3.76562 12.4062 4.925 13.1 6.3375 13.3875L5.25 12.3L6.3 11.25L9.7125 14.6625C9.35 14.7875 8.98438 14.875 8.61563 14.925C8.24688 14.975 7.875 15 7.5 15ZM7.875 9.75V5.25H10.125C10.3375 5.25 10.5156 5.32187 10.6594 5.46562C10.8031 5.60938 10.875 5.7875 10.875 6V9C10.875 9.2125 10.8031 9.39062 10.6594 9.53438C10.5156 9.67813 10.3375 9.75 10.125 9.75H7.875ZM4.125 9.75V8.625H6V7.875H4.875V7.125H6V6.375H4.125V5.25H6.375C6.5875 5.25 6.76562 5.32187 6.90938 5.46562C7.05313 5.60938 7.125 5.7875 7.125 6V9C7.125 9.2125 7.05313 9.39062 6.90938 9.53438C6.76562 9.67813 6.5875 9.75 6.375 9.75H4.125ZM9 8.625H9.75V6.375H9V8.625ZM13.5 7.5C13.5 6.0625 13.0469 4.79375 12.1406 3.69375C11.2344 2.59375 10.075 1.9 8.6625 1.6125L9.75 2.7L8.7 3.75L5.2875 0.3375C5.65 0.2125 6.01562 0.125 6.38438 0.075C6.75313 0.025 7.125 0 7.5 0C8.5375 0 9.5125 0.196875 10.425 0.590625C11.3375 0.984375 12.1312 1.51875 12.8062 2.19375C13.4812 2.86875 14.0156 3.6625 14.4094 4.575C14.8031 5.4875 15 6.4625 15 7.5H13.5Z" fill="white"/>
</svg>
